<svg id="Layer_1" enable-background="new 0 0 496.016 496.016" height="512" viewBox="0 0 496.016 496.016" width="512" xmlns="http://www.w3.org/2000/svg"><path d="m189.028 382v98c0 14.197-17.229 21.387-27.31 11.31l-98-98c-10.22-10.224-2.701-27.31 11.31-27.31h98c8.84 0 16 7.16 16 16zm248-334v400c0 26.51-21.49 48-48 48h-170.47c-8.86 0-16.03-7.2-16-16.07.06-14.72-.03-44.82-.03-108.1 0-10.68-8.65-19.33-19.33-19.33-63.27 0-93.38-.09-108.1-.03-8.87.03-16.07-7.14-16.07-16v-288.47c0-26.51 21.49-48 48-48h282c26.51 0 48 21.49 48 48zm-247.583 80.774 32.539 32.539c6.248 6.249 16.38 6.248 22.627 0l78.5-78.5c6.249-6.248 6.249-16.379 0-22.627-6.248-6.249-16.379-6.249-22.627 0l-67.187 67.186-21.226-21.226c-6.248-6.248-16.379-6.248-22.627 0-6.248 6.25-6.248 16.38.001 22.628zm164.583 259.226c0-8.836-7.163-16-16-16h-93c-8.837 0-16 7.164-16 16s7.163 16 16 16h93c8.837 0 16-7.164 16-16zm0-82c0-8.836-7.163-16-16-16h-181c-8.837 0-16 7.164-16 16s7.163 16 16 16h181c8.837 0 16-7.164 16-16zm0-82c0-8.836-7.163-16-16-16h-181c-8.837 0-16 7.164-16 16s7.163 16 16 16h181c8.837 0 16-7.164 16-16z"/></svg>