<svg xmlns="http://www.w3.org/2000/svg" width="92" height="76" viewBox="0 0 92 76" fill="none"><g clip-path="url(#clip0_2788_7783)"><path d="M71.4068 41.181C69.127 41.181 66.781 39.6184 66.7106 36.6623C66.602 32.7306 67.6789 28.8561 69.8037 25.5335C68.916 24.3945 67.8876 23.3701 66.7426 22.4844C63.3741 24.5669 59.4548 25.6065 55.4865 25.4701C52.4979 25.375 50.9482 23.0405 50.9567 20.7822C50.9652 18.5239 52.5342 16.2022 55.5185 16.1303C59.4878 16.0215 63.3995 17.0883 66.7533 19.1942C67.3279 18.7558 67.8741 18.2819 68.3884 17.7754C68.9033 17.2691 69.386 16.7317 69.8336 16.1662C67.731 12.8296 66.6815 8.94728 66.8194 5.01633C66.9134 2.056 69.27 0.522973 71.5499 0.529316C73.8297 0.53566 76.1757 2.09195 76.2461 5.04805C76.3549 8.97974 75.278 12.8543 73.153 16.1768C73.5962 16.7455 74.0745 17.2865 74.5854 17.7965C75.0969 18.306 75.6394 18.7841 76.2098 19.228C79.5784 17.1455 83.4976 16.1059 87.466 16.2423C90.4545 16.3354 92.0043 18.6698 91.9957 20.9281C91.9872 23.1864 90.4182 25.5103 87.4339 25.5801C83.4645 25.6899 79.5525 24.623 76.1992 22.5161C75.0501 23.3964 74.0155 24.4142 73.1188 25.5462C75.2224 28.8825 76.2727 32.7649 76.1351 36.6961C76.0412 39.6564 73.6845 41.1895 71.4047 41.181M71.4517 28.0858C70.0458 30.7017 69.3493 33.6343 69.4301 36.5967C69.4664 37.9817 70.521 38.4787 71.4154 38.4808C72.3098 38.4829 73.3665 37.9965 73.4113 36.6094C73.5134 33.6481 72.8382 30.7113 71.4517 28.0858ZM69.0288 20.8456C69.4686 21.2136 69.8934 21.6048 70.3096 22.0129C70.7259 22.421 71.108 22.8439 71.4773 23.2816C71.8487 22.8481 72.2415 22.4252 72.6535 22.0129C73.0655 21.6005 73.4945 21.2199 73.9343 20.8541C73.4945 20.4862 73.0676 20.0978 72.6535 19.689C72.2458 19.2809 71.8551 18.8559 71.4858 18.4203C71.1144 18.8531 70.7216 19.276 70.3075 19.689C69.8934 20.102 69.4664 20.4876 69.0267 20.8456M56.0906 18.8221H55.5847C54.1865 18.8559 53.6869 19.9005 53.6827 20.7864C53.6784 21.6724 54.1715 22.7191 55.5719 22.7635C58.5624 22.869 61.5292 22.2022 64.181 20.8287C61.6917 19.5152 58.9153 18.8262 56.0949 18.8221M78.7821 20.8795C81.4219 22.273 84.3819 22.9631 87.372 22.8819C88.7724 22.8481 89.2719 21.8014 89.2762 20.9175C89.2804 20.0337 88.7873 18.9828 87.387 18.9383C84.3975 18.8378 81.4328 19.5066 78.7821 20.8795ZM71.5435 3.22745C70.6512 3.22745 69.5924 3.71379 69.5475 5.0988C69.4448 8.06015 70.12 10.9972 71.5072 13.6224C72.9126 11.0071 73.6092 8.07534 73.5287 5.1136C73.4924 3.72648 72.4379 3.23168 71.5435 3.22745Z" fill="white"></path><path d="M0 55.1409H20.0189V49.4423C20.0189 46.6131 18.8911 44.4534 16.6355 42.9634C14.3798 41.4734 11.5037 40.7283 8.00715 40.7283C6.38051 40.7399 4.75788 40.8898 3.15718 41.1766C2.95312 40.0512 2.84033 38.9113 2.8199 37.768C2.8199 36.0186 3.18635 34.7809 3.91925 34.0549C4.65216 33.3289 5.80773 32.894 7.38596 32.7503C8.66676 32.6769 9.60673 32.6396 10.2059 32.6382C13.9287 32.6382 17.1713 33.3085 19.9335 34.6491C22.601 35.9035 24.8224 37.9285 26.3055 40.4577C27.7898 42.9951 28.532 45.9928 28.532 49.4508V63.4066H0V55.1409Z" fill="white"></path><path d="M34.396 67.6527C35.5615 67.6527 36.4076 67.3362 36.9341 66.7033C37.4607 66.0703 37.7239 64.9715 37.7239 63.4067V41.6314C37.7239 39.8073 38.1188 38.4575 38.9087 37.5821C39.6985 36.7067 41.0327 36.269 42.9112 36.269C44.0315 36.2829 45.1485 36.3925 46.2498 36.5967V63.411C46.2498 67.3947 45.3476 70.4107 43.543 72.459C41.7385 74.5073 39.1599 75.53 35.807 75.5272C33.3875 75.4931 30.9888 75.0784 28.7007 74.2986L30.3358 67.0374C32.0649 67.4476 33.4169 67.6527 34.3917 67.6527M38.6226 30.2849C37.8468 29.5102 37.3659 28.4933 37.2618 27.407C37.1576 26.3208 37.4367 25.2323 38.0514 24.3269C38.6662 23.4215 39.5787 22.755 40.6336 22.4409C41.6885 22.1269 42.8207 22.1846 43.8375 22.6043C44.8544 23.0239 45.693 23.7796 46.2106 24.7428C46.7283 25.7059 46.8931 26.817 46.677 27.8869C46.4608 28.9569 45.8771 29.9196 45.0251 30.6112C44.1731 31.3028 43.1055 31.6807 42.0039 31.6804C41.374 31.689 40.7489 31.5696 40.1674 31.3295C39.5858 31.0895 39.0601 30.734 38.6226 30.2849Z" fill="white"></path></g><defs><clipPath id="clip0_2788_7783"><rect width="92" height="75" fill="white" transform="translate(0 0.527344)"></rect></clipPath></defs></svg>